<?xml version="1.0" encoding="iso-8859-1"?>
<!-- Generator: Adobe Illustrator 18.0.0, SVG Export Plug-In . SVG Version: 6.00 Build 0)  -->
<!DOCTYPE svg PUBLIC "-//W3C//DTD SVG 1.1//EN" "http://www.w3.org/Graphics/SVG/1.1/DTD/svg11.dtd">
<svg version="1.1" id="Capa_1" xmlns="http://www.w3.org/2000/svg" xmlns:xlink="http://www.w3.org/1999/xlink" x="0px" y="0px"
	 viewBox="0 0 297 297" style="enable-background:new 0 0 297 297;" xml:space="preserve">
<g>
	<path d="M279.745,221.521V91.846c0-5.776-4.682-10.458-10.458-10.458h-58.563V67.793h56.838c5.775,0,10.457-4.683,10.457-10.458
		V12.471c0-5.775-4.682-10.458-10.457-10.458H132.971c-5.774,0-10.457,4.683-10.457,10.458v44.864
		c0,5.775,4.683,10.458,10.457,10.458h56.839v13.595H27.715c-5.776,0-10.458,4.682-10.458,10.458v129.676H279.745z M227.38,112.165
		c1.946-1.946,4.645-3.064,7.395-3.064c2.76,0,5.448,1.118,7.393,3.064c1.956,1.945,3.065,4.643,3.065,7.394
		c0,2.75-1.109,5.449-3.065,7.393c-1.944,1.946-4.633,3.065-7.393,3.065c-2.75,0-5.448-1.119-7.395-3.065
		c-1.944-1.943-3.063-4.643-3.063-7.393C224.316,116.808,225.436,114.11,227.38,112.165z M227.38,146.675
		c1.946-1.945,4.645-3.064,7.395-3.064s5.448,1.118,7.393,3.064c1.956,1.945,3.065,4.645,3.065,7.395s-1.109,5.448-3.065,7.393
		c-1.944,1.945-4.643,3.064-7.393,3.064s-5.448-1.119-7.395-3.064c-1.944-1.944-3.063-4.643-3.063-7.393
		S225.436,148.62,227.38,146.675z M227.38,181.186c1.946-1.946,4.645-3.064,7.395-3.064c2.76,0,5.448,1.118,7.393,3.064
		c1.956,1.945,3.065,4.645,3.065,7.394c0,2.75-1.109,5.449-3.065,7.394c-1.944,1.945-4.643,3.064-7.393,3.064
		s-5.438-1.119-7.395-3.064c-1.944-1.944-3.063-4.644-3.063-7.394C224.316,185.83,225.436,183.131,227.38,181.186z M192.87,112.165
		c1.944-1.946,4.643-3.064,7.394-3.064c2.761,0,5.448,1.118,7.393,3.064c1.955,1.945,3.064,4.643,3.064,7.394
		c0,2.75-1.108,5.449-3.064,7.393c-1.945,1.946-4.643,3.065-7.393,3.065c-2.751,0-5.449-1.119-7.394-3.065
		c-1.946-1.943-3.064-4.643-3.064-7.393C189.806,116.808,190.924,114.11,192.87,112.165z M192.87,146.675
		c1.944-1.945,4.643-3.064,7.394-3.064c2.75,0,5.448,1.118,7.393,3.064c1.944,1.945,3.064,4.645,3.064,7.395
		s-1.119,5.448-3.064,7.393c-1.945,1.945-4.643,3.064-7.393,3.064c-2.751,0-5.449-1.119-7.394-3.064
		c-1.946-1.944-3.064-4.643-3.064-7.393S190.924,148.62,192.87,146.675z M192.87,181.186c1.944-1.946,4.643-3.064,7.394-3.064
		c2.761,0,5.448,1.118,7.393,3.064c1.955,1.945,3.064,4.645,3.064,7.394c0,2.75-1.108,5.449-3.064,7.394
		c-1.945,1.945-4.643,3.064-7.393,3.064c-2.751,0-5.449-1.119-7.394-3.064c-1.946-1.944-3.064-4.644-3.064-7.394
		C189.806,185.83,190.924,183.131,192.87,181.186z M158.358,112.165c1.946-1.946,4.645-3.064,7.395-3.064
		c2.761,0,5.448,1.118,7.393,3.064c1.956,1.945,3.065,4.643,3.065,7.394c0,2.75-1.109,5.449-3.065,7.393
		c-1.944,1.946-4.632,3.065-7.393,3.065c-2.75,0-5.448-1.119-7.395-3.065c-1.944-1.943-3.063-4.643-3.063-7.393
		C155.295,116.808,156.414,114.11,158.358,112.165z M158.358,146.675c1.946-1.945,4.645-3.064,7.395-3.064
		c2.751,0,5.448,1.118,7.393,3.064c1.946,1.945,3.065,4.645,3.065,7.395s-1.119,5.448-3.065,7.393
		c-1.944,1.945-4.642,3.064-7.393,3.064c-2.75,0-5.448-1.119-7.395-3.064c-1.944-1.944-3.063-4.643-3.063-7.393
		S156.414,148.62,158.358,146.675z M158.358,181.186c1.946-1.946,4.645-3.064,7.395-3.064c2.761,0,5.448,1.118,7.393,3.064
		c1.946,1.945,3.065,4.645,3.065,7.394c0,2.75-1.119,5.449-3.065,7.394c-1.944,1.945-4.642,3.064-7.393,3.064
		c-2.75,0-5.448-1.119-7.395-3.064c-1.944-1.944-3.063-4.644-3.063-7.394C155.295,185.83,156.414,183.131,158.358,181.186z
		 M89.338,146.675c1.945-1.945,4.644-3.064,7.394-3.064c2.751,0,5.449,1.118,7.394,3.064c1.956,1.945,3.064,4.645,3.064,7.395
		s-1.108,5.448-3.064,7.393c-1.944,1.945-4.643,3.064-7.394,3.064c-2.75,0-5.448-1.119-7.394-3.064
		c-1.945-1.944-3.064-4.643-3.064-7.393S87.393,148.62,89.338,146.675z M89.338,181.186c1.945-1.946,4.644-3.064,7.394-3.064
		c2.751,0,5.449,1.118,7.394,3.064c1.956,1.945,3.064,4.645,3.064,7.394c0,2.75-1.108,5.449-3.064,7.394
		c-1.944,1.945-4.643,3.064-7.394,3.064c-2.75,0-5.448-1.119-7.394-3.064c-1.945-1.944-3.064-4.644-3.064-7.394
		C86.273,185.83,87.393,183.131,89.338,181.186z M54.827,146.675c1.946-1.945,4.645-3.064,7.395-3.064
		c2.75,0,5.448,1.118,7.393,3.064c1.956,1.945,3.065,4.645,3.065,7.395s-1.109,5.448-3.065,7.393
		c-1.944,1.945-4.643,3.064-7.393,3.064c-2.75,0-5.448-1.119-7.395-3.064c-1.945-1.944-3.063-4.643-3.063-7.393
		S52.882,148.62,54.827,146.675z M54.827,181.186c1.946-1.946,4.645-3.064,7.395-3.064c2.76,0,5.448,1.118,7.393,3.064
		c1.946,1.945,3.065,4.645,3.065,7.394c0,2.75-1.119,5.449-3.065,7.394c-1.944,1.945-4.643,3.064-7.393,3.064
		c-2.75,0-5.448-1.119-7.395-3.064c-1.945-1.944-3.063-4.644-3.063-7.394C51.764,185.83,52.882,183.131,54.827,181.186z"/>
	<path d="M0,238.254v46.275c0,5.775,4.684,10.458,10.458,10.458h276.086c5.774,0,10.456-4.683,10.456-10.458v-46.275H0z"/>
</g>
<g>
</g>
<g>
</g>
<g>
</g>
<g>
</g>
<g>
</g>
<g>
</g>
<g>
</g>
<g>
</g>
<g>
</g>
<g>
</g>
<g>
</g>
<g>
</g>
<g>
</g>
<g>
</g>
<g>
</g>
</svg>
